<svg width="19.000000" height="19.000000" viewBox="0 0 19 19" fill="none" xmlns="http://www.w3.org/2000/svg" xmlns:xlink="http://www.w3.org/1999/xlink">
	<desc>
			Created with Pixso.
	</desc>
	<defs>
		<clipPath id="clip301_1289">
			<rect id="coffee" width="18.937500" height="18.937500" transform="translate(-0.327881 -0.328125)" fill="white" fill-opacity="0"/>
		</clipPath>
	</defs>
	<rect id="coffee" width="18.937500" height="18.937500" transform="translate(-0.327881 -0.328125)" fill="#FFFFFF" fill-opacity="0"/>
	<g clip-path="url(#clip301_1289)">
		<path id="Vector" d="M13.87 5.98L14.66 5.98C15.5 5.98 16.3 6.31 16.89 6.9C17.48 7.5 17.82 8.3 17.82 9.14C17.82 9.97 17.48 10.78 16.89 11.37C16.3 11.96 15.5 12.29 14.66 12.29L13.87 12.29" stroke="#FFFFFF" stroke-opacity="1.000000" stroke-width="1.183594" stroke-linejoin="round" stroke-linecap="round"/>
		<path id="Vector" d="M1.25 5.98L13.87 5.98L13.87 13.08C13.87 13.92 13.54 14.72 12.95 15.31C12.35 15.9 11.55 16.24 10.71 16.24L4.4 16.24C3.56 16.24 2.76 15.9 2.17 15.31C1.58 14.72 1.25 13.92 1.25 13.08L1.25 5.98Z" fill="#FFFFFF" fill-opacity="1.000000" fill-rule="nonzero"/>
		<path id="Vector" d="M13.87 5.98L13.87 13.08C13.87 13.92 13.54 14.72 12.95 15.31C12.35 15.9 11.55 16.24 10.71 16.24L4.4 16.24C3.56 16.24 2.76 15.9 2.17 15.31C1.58 14.72 1.25 13.92 1.25 13.08L1.25 5.98L13.87 5.98Z" stroke="#FFFFFF" stroke-opacity="1.000000" stroke-width="1.183594" stroke-linejoin="round"/>
		<path id="Vector" d="M4.4 0.46L4.4 2.82" stroke="#FFFFFF" stroke-opacity="1.000000" stroke-width="1.183594" stroke-linejoin="round" stroke-linecap="round"/>
		<path id="Vector" d="M7.56 0.46L7.56 2.82" stroke="#7900C2" stroke-opacity="1.000000" stroke-width="1.183594" stroke-linejoin="round" stroke-linecap="round"/>
		<path id="Vector" d="M10.71 0.46L10.71 2.82" stroke="#FFFFFF" stroke-opacity="1.000000" stroke-width="1.183594" stroke-linejoin="round" stroke-linecap="round"/>
	</g>
</svg>
